<svg xmlns="http://www.w3.org/2000/svg" viewBox="0 0 32 32" fill="none">
  <rect width="32" height="32" rx="8" fill="#FF6B35"/>
  <path d="M8 12.5C8 11.1193 9.11929 10 10.5 10H21.5C22.8807 10 24 11.1193 24 12.5V13H8V12.5Z" fill="white"/>
  <rect x="8" y="14" width="16" height="2" rx="0.5" fill="white" opacity="0.9"/>
  <path d="M9 17H23L22 24H10L9 17Z" fill="white" opacity="0.95"/>
  <rect x="15" y="7" width="2" height="4" rx="1" fill="white"/>
  <path d="M12 8.5C12 7.67 12.67 7 13.5 7C14.33 7 14.5 7.67 14.5 8.5" stroke="white" stroke-width="1.5" stroke-linecap="round" fill="none"/>
  <path d="M17.5 8.5C17.5 7.67 18.17 7 19 7C19.83 7 20 7.67 20 8.5" stroke="white" stroke-width="1.5" stroke-linecap="round" fill="none"/>
</svg>
